#define attribute_width 16
#define attribute_height 16
#define attribute_x_hot 18
#define attribute_y_hot 18
static char bomb_bits[] = {
  0xC0,0x01,0xC0,0x01,0xE0,0x03,0xE0,0x03,0xE0,0x03,0x70,0x07,
  0x70,0x07,0x78,0x0F,0x38,0x0E,0xF8,0x0F,0xFC,0x1F,0xFC,0x1F,
  0x1E,0x3C,0x0E,0x38,0x0E,0x38,0x07,0x70};