#define bold_width 16
#define bold_height 16
static unsigned char bold_bits[] = {
   0xfe, 0x07, 0x1c, 0x0e, 0x1c, 0x0c, 0x1c, 0x0c, 0x1c, 0x0c, 0x1c, 0x0c,
   0x1c, 0x06, 0xfc, 0x0f, 0x1c, 0x1e, 0x1c, 0x1c, 0x1c, 0x1c, 0x1c, 0x1c,
   0x1c, 0x1c, 0x1c, 0x0c, 0x1c, 0x0e, 0xfe, 0x07};
