#define bring_width 16
#define bring_height 16
static unsigned char bring_bits[] = {
   0x80, 0x00, 0x80, 0x00, 0xc0, 0x01, 0xc0, 0x01, 0xe0, 0x03, 0xa0, 0x02,
   0x90, 0x04, 0x80, 0x00, 0x80, 0x00, 0x80, 0x00, 0x80, 0x00, 0x80, 0x00,
   0x80, 0x00, 0x80, 0x00, 0x80, 0x00, 0x80, 0x00};
