#define connector_width 19
#define connector_height 19
static unsigned char connector_bits[] = {
   0x00, 0x02, 0x00, 0x00, 0x02, 0x00, 0x00, 0x02, 0x00, 0x00, 0x00, 0x00,
   0x00, 0x02, 0x00, 0x00, 0x02, 0x00, 0x00, 0x02, 0x00, 0x00, 0x00, 0x00,
   0x00, 0x02, 0x00, 0x77, 0x77, 0x07, 0x00, 0x02, 0x00, 0x00, 0x00, 0x00,
   0x00, 0x02, 0x00, 0x00, 0x02, 0x00, 0x00, 0x02, 0x00, 0x00, 0x00, 0x00,
   0x00, 0x02, 0x00, 0x00, 0x02, 0x00, 0x00, 0x02, 0x00};
