#define curve_width 16
#define curve_height 16
static unsigned char curve_bits[] = {
   0x00, 0x03, 0x80, 0x01, 0x80, 0x00, 0xc0, 0x00, 0x40, 0x00, 0x40, 0x00,
   0xc0, 0x00, 0x80, 0x00, 0x80, 0x01, 0x00, 0x01, 0x00, 0x01, 0x00, 0x01,
   0x80, 0x01, 0x80, 0x00, 0xc0, 0x00, 0x60, 0x00};
