#define group_width 21
#define group_height 18
static unsigned char group_bits[] = {
   0x00, 0x00, 0x00, 0x00, 0x00, 0x00, 0xc0, 0x07, 0x00, 0x30, 0x18, 0x00,
   0x10, 0x10, 0x00, 0x08, 0x20, 0x00, 0x08, 0xff, 0x07, 0x08, 0x01, 0x04,
   0x08, 0x01, 0x04, 0x08, 0x0d, 0x04, 0x10, 0x0b, 0x04, 0x30, 0x11, 0x04,
   0xc0, 0x10, 0x04, 0x20, 0x20, 0x04, 0x10, 0xe0, 0x07, 0xf8, 0x7f, 0x00,
   0x00, 0x00, 0x00, 0x00, 0x00, 0x00};
