#define image_width 16
#define image_height 16
static unsigned char image_bits[] = {
   0xff, 0xff, 0x01, 0x80, 0x39, 0x80, 0x45, 0x82, 0x45, 0x82, 0x45, 0x85,
   0x39, 0x85, 0x01, 0x85, 0x81, 0x88, 0xff, 0xf8, 0x81, 0x88, 0x41, 0x90,
   0xc1, 0x9f, 0x01, 0x82, 0x01, 0x82, 0xff, 0xff};
