#define italic_width 16
#define italic_height 16
static unsigned char italic_bits[] = {
   0xc0, 0x0f, 0x80, 0x07, 0x80, 0x07, 0xc0, 0x03, 0xc0, 0x03, 0xc0, 0x03,
   0xc0, 0x03, 0xc0, 0x03, 0xe0, 0x01, 0xe0, 0x01, 0xe0, 0x01, 0xe0, 0x01,
   0xe0, 0x01, 0xf0, 0x00, 0xf0, 0x00, 0xf8, 0x01};
