#define namedconnector_width 19
#define namedconnector_height 19
#define namedconnector_x_hot 19
#define namedconnector_y_hot 19
static char bomb_bits[] = {
  0x00,0x02,0xF8,0x00,0x02,0xF8,0x00,0x02,0xF8,0x00,0x00,0xF8,
  0x70,0x72,0xF8,0x70,0x72,0xF8,0x70,0x72,0xF8,0xF0,0x71,0xF8,
  0xF0,0x73,0xF8,0xF7,0x7F,0xFF,0xF0,0x7F,0xF8,0x70,0x7E,0xF8,
  0x70,0x7E,0xF8,0x70,0x72,0xF8,0x70,0x72,0xF8,0x70,0x70,0xF8,
  0x00,0x02,0xF8,0x00,0x02,0xF8,0x00,0x02,0xF8};