#define oval_width 16
#define oval_height 16
static unsigned char oval_bits[] = {
   0x00, 0x00, 0xe0, 0x07, 0x38, 0x1c, 0x0c, 0x30, 0x06, 0x60, 0x02, 0x40,
   0x03, 0xc0, 0x01, 0x80, 0x01, 0x80, 0x01, 0x80, 0x03, 0xc0, 0x02, 0x40,
   0x06, 0x60, 0x0c, 0x30, 0x38, 0x1c, 0xe0, 0x07};
