#define polyline_width 16
#define polyline_height 16
static unsigned char polyline_bits[] = {
   0x00, 0x00, 0x01, 0x04, 0x03, 0x0c, 0x02, 0x0c, 0x06, 0x1e, 0x04, 0x12,
   0x0c, 0x32, 0x08, 0x22, 0x18, 0x63, 0x10, 0x41, 0x30, 0xc1, 0x20, 0x81,
   0xe0, 0x01, 0xc0, 0x00, 0xc0, 0x00, 0x80, 0x00};
