#define polygon_width 16
#define polygon_height 16
static unsigned char polygon_bits[] = {
   0x40, 0x00, 0xe0, 0x80, 0xa0, 0xe0, 0xb0, 0xf1, 0x10, 0xdd, 0x18, 0x4f,
   0x08, 0x42, 0x0c, 0x40, 0x04, 0x60, 0x06, 0x20, 0xc2, 0x21, 0x7f, 0x23,
   0x07, 0x36, 0x00, 0x1c, 0x00, 0x18, 0x00, 0x10};
