#define select_width 16
#define select_height 16
static unsigned char select_bits[] = {
   0x00, 0x00, 0x99, 0x99, 0x01, 0x80, 0x00, 0x00, 0x00, 0x00, 0x01, 0x80,
   0x01, 0x80, 0x00, 0x00, 0x00, 0x00, 0x01, 0x80, 0x01, 0x80, 0x00, 0x00,
   0x00, 0x00, 0xcd, 0xcc, 0x00, 0x00, 0x00, 0x00};
