#define smoothpolyline_width 16
#define smoothpolyline_height 16
static unsigned char smoothpolyline_bits[] = {
   0x00, 0x00, 0x00, 0x00, 0x00, 0x00, 0x00, 0x00, 0x00, 0x00, 0x00, 0x3c,
   0x00, 0x66, 0x00, 0xc3, 0x01, 0x81, 0x01, 0x01, 0x83, 0x01, 0x82, 0x00,
   0xee, 0x00, 0x38, 0x00, 0x00, 0x00, 0x00, 0x00};
