#define smoothpolygon_width 16
#define smoothpolygon_height 16
static unsigned char smoothpolygon_bits[] = {
   0x00, 0x00, 0xf0, 0x0f, 0x1c, 0x38, 0x06, 0x60, 0x02, 0x40, 0x03, 0xc0,
   0x01, 0x80, 0x81, 0x87, 0xc1, 0xcc, 0x41, 0x78, 0xc1, 0x00, 0x81, 0x03,
   0x03, 0x06, 0x02, 0x04, 0x0e, 0x06, 0xf8, 0x03};
