#define text2_width 16
#define text2_height 16
static unsigned char text2_bits[] = {
   0x00, 0x00, 0x00, 0x00, 0xfc, 0x3f, 0xfc, 0x3f, 0x84, 0x21, 0x80, 0x01,
   0x80, 0x01, 0x80, 0x01, 0x80, 0x01, 0x80, 0x01, 0x80, 0x01, 0x80, 0x01,
   0x80, 0x01, 0xc0, 0x03, 0x00, 0x00, 0x00, 0x00};
