#define underlined_width 16
#define underlined_height 16
static unsigned char underlined_bits[] = {
   0x3c, 0x1c, 0x18, 0x08, 0x18, 0x08, 0x18, 0x08, 0x18, 0x08, 0x18, 0x08,
   0x18, 0x08, 0x18, 0x08, 0x18, 0x08, 0x18, 0x08, 0x18, 0x08, 0x18, 0x04,
   0x30, 0x04, 0xe0, 0x03, 0x00, 0x00, 0xfc, 0x1f};
