#define ungroup_width 16
#define ungroup_height 16
static unsigned char ungroup_bits[] = {
   0x00, 0x7f, 0x80, 0x20, 0x80, 0x10, 0x40, 0x08, 0x40, 0x04, 0x20, 0x02,
   0x20, 0x0f, 0x10, 0x08, 0x70, 0x04, 0x40, 0x02, 0x20, 0x01, 0xa0, 0x00,
   0x50, 0x00, 0x30, 0x00, 0x18, 0x00, 0x08, 0x00};
