#define zoom_width 16
#define zoom_height 16
static unsigned char zoom_bits[] = {
   0x00, 0x1f, 0xc0, 0x7f, 0xc0, 0x60, 0x60, 0xc0, 0x60, 0xc0, 0x60, 0xc0,
   0x60, 0xd0, 0x60, 0xc8, 0xe0, 0x60, 0xd0, 0x7f, 0x88, 0x1f, 0x44, 0x00,
   0x22, 0x00, 0x11, 0x00, 0x09, 0x00, 0x07, 0x00};
